<mxfile host="app.diagrams.net" agent="Mozilla/5.0 (Windows NT 10.0; Win64; x64) AppleWebKit/537.36 (KHTML, like Gecko) Chrome/127.0.0.0 Safari/537.36" version="24.7.7">
  <diagram name="Página-1" id="f4cfRZK4pI2Xq5ohZ9TF">
    <mxGraphModel dx="1937" dy="390" grid="1" gridSize="10" guides="1" tooltips="1" connect="1" arrows="1" fold="1" page="1" pageScale="1" pageWidth="827" pageHeight="1169" math="0" shadow="0">
      <root>
        <mxCell id="0" />
        <mxCell id="1" parent="0" />
        <mxCell id="jlgY_tzZgdFAdNpTK1fE-4" value="empresa" style="whiteSpace=wrap;html=1;align=center;" vertex="1" parent="1">
          <mxGeometry x="119" y="230" width="100" height="40" as="geometry" />
        </mxCell>
        <mxCell id="jlgY_tzZgdFAdNpTK1fE-22" style="edgeStyle=none;shape=connector;rounded=0;orthogonalLoop=1;jettySize=auto;html=1;exitX=0.5;exitY=0;exitDx=0;exitDy=0;entryX=0.5;entryY=1;entryDx=0;entryDy=0;strokeColor=default;align=center;verticalAlign=middle;fontFamily=Helvetica;fontSize=11;fontColor=default;labelBackgroundColor=default;endArrow=none;endFill=0;" edge="1" parent="1" source="jlgY_tzZgdFAdNpTK1fE-5" target="jlgY_tzZgdFAdNpTK1fE-6">
          <mxGeometry relative="1" as="geometry" />
        </mxCell>
        <mxCell id="jlgY_tzZgdFAdNpTK1fE-61" style="edgeStyle=none;shape=connector;rounded=0;orthogonalLoop=1;jettySize=auto;html=1;exitX=0.5;exitY=1;exitDx=0;exitDy=0;entryX=0.5;entryY=0;entryDx=0;entryDy=0;strokeColor=default;align=center;verticalAlign=middle;fontFamily=Helvetica;fontSize=11;fontColor=default;labelBackgroundColor=default;endArrow=none;endFill=0;" edge="1" parent="1" source="jlgY_tzZgdFAdNpTK1fE-5" target="jlgY_tzZgdFAdNpTK1fE-4">
          <mxGeometry relative="1" as="geometry" />
        </mxCell>
        <mxCell id="jlgY_tzZgdFAdNpTK1fE-5" value="captar" style="shape=rhombus;perimeter=rhombusPerimeter;whiteSpace=wrap;html=1;align=center;" vertex="1" parent="1">
          <mxGeometry x="109" y="150" width="120" height="60" as="geometry" />
        </mxCell>
        <mxCell id="jlgY_tzZgdFAdNpTK1fE-23" style="edgeStyle=none;shape=connector;rounded=0;orthogonalLoop=1;jettySize=auto;html=1;exitX=0.59;exitY=-0.021;exitDx=0;exitDy=0;entryX=0.5;entryY=1;entryDx=0;entryDy=0;strokeColor=default;align=center;verticalAlign=middle;fontFamily=Helvetica;fontSize=11;fontColor=default;labelBackgroundColor=default;endArrow=none;endFill=0;exitPerimeter=0;" edge="1" parent="1" source="jlgY_tzZgdFAdNpTK1fE-6" target="jlgY_tzZgdFAdNpTK1fE-7">
          <mxGeometry relative="1" as="geometry" />
        </mxCell>
        <mxCell id="jlgY_tzZgdFAdNpTK1fE-36" style="edgeStyle=none;shape=connector;rounded=0;orthogonalLoop=1;jettySize=auto;html=1;exitX=1;exitY=0.75;exitDx=0;exitDy=0;entryX=0;entryY=0.75;entryDx=0;entryDy=0;strokeColor=default;align=center;verticalAlign=middle;fontFamily=Helvetica;fontSize=11;fontColor=default;labelBackgroundColor=default;endArrow=none;endFill=0;" edge="1" parent="1" source="jlgY_tzZgdFAdNpTK1fE-6" target="jlgY_tzZgdFAdNpTK1fE-9">
          <mxGeometry relative="1" as="geometry" />
        </mxCell>
        <mxCell id="jlgY_tzZgdFAdNpTK1fE-38" style="edgeStyle=none;shape=connector;rounded=0;orthogonalLoop=1;jettySize=auto;html=1;exitX=0;exitY=0.25;exitDx=0;exitDy=0;entryX=1;entryY=0.5;entryDx=0;entryDy=0;strokeColor=default;align=center;verticalAlign=middle;fontFamily=Helvetica;fontSize=11;fontColor=default;labelBackgroundColor=default;endArrow=none;endFill=0;" edge="1" parent="1" source="jlgY_tzZgdFAdNpTK1fE-6" target="jlgY_tzZgdFAdNpTK1fE-37">
          <mxGeometry relative="1" as="geometry" />
        </mxCell>
        <mxCell id="jlgY_tzZgdFAdNpTK1fE-40" style="edgeStyle=none;shape=connector;rounded=0;orthogonalLoop=1;jettySize=auto;html=1;exitX=0;exitY=0.5;exitDx=0;exitDy=0;entryX=1;entryY=0.5;entryDx=0;entryDy=0;strokeColor=default;align=center;verticalAlign=middle;fontFamily=Helvetica;fontSize=11;fontColor=default;labelBackgroundColor=default;endArrow=none;endFill=0;" edge="1" parent="1" source="jlgY_tzZgdFAdNpTK1fE-6" target="jlgY_tzZgdFAdNpTK1fE-39">
          <mxGeometry relative="1" as="geometry" />
        </mxCell>
        <mxCell id="jlgY_tzZgdFAdNpTK1fE-6" value="pedido de&lt;div&gt;compra&lt;/div&gt;" style="whiteSpace=wrap;html=1;align=center;" vertex="1" parent="1">
          <mxGeometry x="119" y="90" width="100" height="40" as="geometry" />
        </mxCell>
        <mxCell id="jlgY_tzZgdFAdNpTK1fE-7" value="farmácias" style="whiteSpace=wrap;html=1;align=center;" vertex="1" parent="1">
          <mxGeometry x="140" y="10" width="100" height="40" as="geometry" />
        </mxCell>
        <mxCell id="jlgY_tzZgdFAdNpTK1fE-8" value="drogarias" style="whiteSpace=wrap;html=1;align=center;" vertex="1" parent="1">
          <mxGeometry x="250" y="10" width="100" height="40" as="geometry" />
        </mxCell>
        <mxCell id="jlgY_tzZgdFAdNpTK1fE-9" value="cliente" style="whiteSpace=wrap;html=1;align=center;" vertex="1" parent="1">
          <mxGeometry x="439" y="240" width="100" height="40" as="geometry" />
        </mxCell>
        <mxCell id="jlgY_tzZgdFAdNpTK1fE-25" style="edgeStyle=none;shape=connector;rounded=0;orthogonalLoop=1;jettySize=auto;html=1;exitX=0.5;exitY=0;exitDx=0;exitDy=0;entryX=0.25;entryY=1;entryDx=0;entryDy=0;strokeColor=default;align=center;verticalAlign=middle;fontFamily=Helvetica;fontSize=11;fontColor=default;labelBackgroundColor=default;endArrow=none;endFill=0;" edge="1" parent="1" source="jlgY_tzZgdFAdNpTK1fE-10" target="jlgY_tzZgdFAdNpTK1fE-11">
          <mxGeometry relative="1" as="geometry" />
        </mxCell>
        <mxCell id="jlgY_tzZgdFAdNpTK1fE-10" value="possui" style="shape=rhombus;perimeter=rhombusPerimeter;whiteSpace=wrap;html=1;align=center;" vertex="1" parent="1">
          <mxGeometry x="419" y="160" width="120" height="60" as="geometry" />
        </mxCell>
        <mxCell id="jlgY_tzZgdFAdNpTK1fE-26" style="edgeStyle=none;shape=connector;rounded=0;orthogonalLoop=1;jettySize=auto;html=1;exitX=0;exitY=0.5;exitDx=0;exitDy=0;entryX=1;entryY=0.5;entryDx=0;entryDy=0;strokeColor=default;align=center;verticalAlign=middle;fontFamily=Helvetica;fontSize=11;fontColor=default;labelBackgroundColor=default;endArrow=none;endFill=0;" edge="1" parent="1" source="jlgY_tzZgdFAdNpTK1fE-11" target="jlgY_tzZgdFAdNpTK1fE-19">
          <mxGeometry relative="1" as="geometry" />
        </mxCell>
        <mxCell id="jlgY_tzZgdFAdNpTK1fE-28" style="edgeStyle=none;shape=connector;rounded=0;orthogonalLoop=1;jettySize=auto;html=1;exitX=0.25;exitY=0;exitDx=0;exitDy=0;entryX=1;entryY=1;entryDx=0;entryDy=0;strokeColor=default;align=center;verticalAlign=middle;fontFamily=Helvetica;fontSize=11;fontColor=default;labelBackgroundColor=default;endArrow=none;endFill=0;" edge="1" parent="1" source="jlgY_tzZgdFAdNpTK1fE-11" target="jlgY_tzZgdFAdNpTK1fE-13">
          <mxGeometry relative="1" as="geometry" />
        </mxCell>
        <mxCell id="jlgY_tzZgdFAdNpTK1fE-30" style="edgeStyle=none;shape=connector;rounded=0;orthogonalLoop=1;jettySize=auto;html=1;exitX=0.75;exitY=0;exitDx=0;exitDy=0;entryX=0;entryY=1;entryDx=0;entryDy=0;strokeColor=default;align=center;verticalAlign=middle;fontFamily=Helvetica;fontSize=11;fontColor=default;labelBackgroundColor=default;endArrow=none;endFill=0;" edge="1" parent="1" source="jlgY_tzZgdFAdNpTK1fE-11" target="jlgY_tzZgdFAdNpTK1fE-14">
          <mxGeometry relative="1" as="geometry" />
        </mxCell>
        <mxCell id="jlgY_tzZgdFAdNpTK1fE-31" style="edgeStyle=none;shape=connector;rounded=0;orthogonalLoop=1;jettySize=auto;html=1;exitX=1;exitY=0;exitDx=0;exitDy=0;entryX=0;entryY=0.5;entryDx=0;entryDy=0;strokeColor=default;align=center;verticalAlign=middle;fontFamily=Helvetica;fontSize=11;fontColor=default;labelBackgroundColor=default;endArrow=none;endFill=0;" edge="1" parent="1" source="jlgY_tzZgdFAdNpTK1fE-11" target="jlgY_tzZgdFAdNpTK1fE-17">
          <mxGeometry relative="1" as="geometry" />
        </mxCell>
        <mxCell id="jlgY_tzZgdFAdNpTK1fE-11" value="ficha cadastral" style="whiteSpace=wrap;html=1;align=center;" vertex="1" parent="1">
          <mxGeometry x="453" y="110" width="100" height="40" as="geometry" />
        </mxCell>
        <mxCell id="jlgY_tzZgdFAdNpTK1fE-12" value="nome" style="ellipse;whiteSpace=wrap;html=1;align=center;" vertex="1" parent="1">
          <mxGeometry x="339" y="90" width="90" height="30" as="geometry" />
        </mxCell>
        <mxCell id="jlgY_tzZgdFAdNpTK1fE-13" value="CNPJ" style="ellipse;whiteSpace=wrap;html=1;align=center;" vertex="1" parent="1">
          <mxGeometry x="389" y="60" width="80" height="30" as="geometry" />
        </mxCell>
        <mxCell id="jlgY_tzZgdFAdNpTK1fE-14" value="endereço completo" style="ellipse;whiteSpace=wrap;html=1;align=center;" vertex="1" parent="1">
          <mxGeometry x="553" y="60" width="90" height="30" as="geometry" />
        </mxCell>
        <mxCell id="jlgY_tzZgdFAdNpTK1fE-15" value="cidade" style="ellipse;whiteSpace=wrap;html=1;align=center;" vertex="1" parent="1">
          <mxGeometry x="559" y="150" width="86" height="40" as="geometry" />
        </mxCell>
        <mxCell id="jlgY_tzZgdFAdNpTK1fE-16" value="estado" style="ellipse;whiteSpace=wrap;html=1;align=center;" vertex="1" parent="1">
          <mxGeometry x="469" y="50" width="80" height="30" as="geometry" />
        </mxCell>
        <mxCell id="jlgY_tzZgdFAdNpTK1fE-17" value="CEP&lt;span style=&quot;color: rgba(0, 0, 0, 0); font-family: monospace; font-size: 0px; text-align: start; text-wrap: nowrap;&quot;&gt;%3CmxGraphModel%3E%3Croot%3E%3CmxCell%20id%3D%220%22%2F%3E%3CmxCell%20id%3D%221%22%20parent%3D%220%22%2F%3E%3CmxCell%20id%3D%222%22%20value%3D%22Attribute%22%20style%3D%22ellipse%3BwhiteSpace%3Dwrap%3Bhtml%3D1%3Balign%3Dcenter%3B%22%20vertex%3D%221%22%20parent%3D%221%22%3E%3CmxGeometry%20x%3D%22190%22%20y%3D%22360%22%20width%3D%22100%22%20height%3D%2240%22%20as%3D%22geometry%22%2F%3E%3C%2FmxCell%3E%3C%2Froot%3E%3C%2FmxGraphModel%3E&lt;/span&gt;" style="ellipse;whiteSpace=wrap;html=1;align=center;" vertex="1" parent="1">
          <mxGeometry x="609" y="90" width="90" height="40" as="geometry" />
        </mxCell>
        <mxCell id="jlgY_tzZgdFAdNpTK1fE-18" value="telefone" style="ellipse;whiteSpace=wrap;html=1;align=center;" vertex="1" parent="1">
          <mxGeometry x="645" y="140" width="74" height="30" as="geometry" />
        </mxCell>
        <mxCell id="jlgY_tzZgdFAdNpTK1fE-19" value="pessoa para contato" style="ellipse;whiteSpace=wrap;html=1;align=center;" vertex="1" parent="1">
          <mxGeometry x="339" y="130" width="90" height="30" as="geometry" />
        </mxCell>
        <mxCell id="jlgY_tzZgdFAdNpTK1fE-24" style="edgeStyle=none;shape=connector;rounded=0;orthogonalLoop=1;jettySize=auto;html=1;exitX=0.75;exitY=0;exitDx=0;exitDy=0;strokeColor=default;align=center;verticalAlign=middle;fontFamily=Helvetica;fontSize=11;fontColor=default;labelBackgroundColor=default;endArrow=none;endFill=0;entryX=0.313;entryY=1;entryDx=0;entryDy=0;entryPerimeter=0;" edge="1" parent="1" source="jlgY_tzZgdFAdNpTK1fE-6" target="jlgY_tzZgdFAdNpTK1fE-8">
          <mxGeometry relative="1" as="geometry">
            <mxPoint x="280" y="60" as="targetPoint" />
          </mxGeometry>
        </mxCell>
        <mxCell id="jlgY_tzZgdFAdNpTK1fE-27" style="edgeStyle=none;shape=connector;rounded=0;orthogonalLoop=1;jettySize=auto;html=1;exitX=0;exitY=0.25;exitDx=0;exitDy=0;entryX=0.944;entryY=0.733;entryDx=0;entryDy=0;entryPerimeter=0;strokeColor=default;align=center;verticalAlign=middle;fontFamily=Helvetica;fontSize=11;fontColor=default;labelBackgroundColor=default;endArrow=none;endFill=0;" edge="1" parent="1" source="jlgY_tzZgdFAdNpTK1fE-11" target="jlgY_tzZgdFAdNpTK1fE-12">
          <mxGeometry relative="1" as="geometry" />
        </mxCell>
        <mxCell id="jlgY_tzZgdFAdNpTK1fE-29" style="edgeStyle=none;shape=connector;rounded=0;orthogonalLoop=1;jettySize=auto;html=1;exitX=0.5;exitY=0;exitDx=0;exitDy=0;strokeColor=default;align=center;verticalAlign=middle;fontFamily=Helvetica;fontSize=11;fontColor=default;labelBackgroundColor=default;endArrow=none;endFill=0;" edge="1" parent="1" source="jlgY_tzZgdFAdNpTK1fE-11">
          <mxGeometry relative="1" as="geometry">
            <mxPoint x="502" y="80" as="targetPoint" />
          </mxGeometry>
        </mxCell>
        <mxCell id="jlgY_tzZgdFAdNpTK1fE-32" style="edgeStyle=none;shape=connector;rounded=0;orthogonalLoop=1;jettySize=auto;html=1;exitX=1;exitY=0.25;exitDx=0;exitDy=0;entryX=0.068;entryY=0.167;entryDx=0;entryDy=0;entryPerimeter=0;strokeColor=default;align=center;verticalAlign=middle;fontFamily=Helvetica;fontSize=11;fontColor=default;labelBackgroundColor=default;endArrow=none;endFill=0;" edge="1" parent="1" source="jlgY_tzZgdFAdNpTK1fE-11" target="jlgY_tzZgdFAdNpTK1fE-18">
          <mxGeometry relative="1" as="geometry" />
        </mxCell>
        <mxCell id="jlgY_tzZgdFAdNpTK1fE-33" style="edgeStyle=none;shape=connector;rounded=0;orthogonalLoop=1;jettySize=auto;html=1;exitX=1;exitY=1;exitDx=0;exitDy=0;entryX=0.07;entryY=0.2;entryDx=0;entryDy=0;entryPerimeter=0;strokeColor=default;align=center;verticalAlign=middle;fontFamily=Helvetica;fontSize=11;fontColor=default;labelBackgroundColor=default;endArrow=none;endFill=0;" edge="1" parent="1" source="jlgY_tzZgdFAdNpTK1fE-11" target="jlgY_tzZgdFAdNpTK1fE-15">
          <mxGeometry relative="1" as="geometry" />
        </mxCell>
        <mxCell id="jlgY_tzZgdFAdNpTK1fE-35" style="edgeStyle=none;shape=connector;rounded=0;orthogonalLoop=1;jettySize=auto;html=1;exitX=0.5;exitY=1;exitDx=0;exitDy=0;entryX=0.42;entryY=0;entryDx=0;entryDy=0;entryPerimeter=0;strokeColor=default;align=center;verticalAlign=middle;fontFamily=Helvetica;fontSize=11;fontColor=default;labelBackgroundColor=default;endArrow=none;endFill=0;" edge="1" parent="1" source="jlgY_tzZgdFAdNpTK1fE-10" target="jlgY_tzZgdFAdNpTK1fE-9">
          <mxGeometry relative="1" as="geometry" />
        </mxCell>
        <mxCell id="jlgY_tzZgdFAdNpTK1fE-37" value="nome do&amp;nbsp;&lt;div&gt;cliente&lt;/div&gt;" style="ellipse;whiteSpace=wrap;html=1;align=center;" vertex="1" parent="1">
          <mxGeometry x="19" y="80" width="90" height="30" as="geometry" />
        </mxCell>
        <mxCell id="jlgY_tzZgdFAdNpTK1fE-39" value="pessoa para contato" style="ellipse;whiteSpace=wrap;html=1;align=center;" vertex="1" parent="1">
          <mxGeometry y="110" width="80" height="30" as="geometry" />
        </mxCell>
        <mxCell id="jlgY_tzZgdFAdNpTK1fE-41" value="código do medicamento" style="ellipse;whiteSpace=wrap;html=1;align=center;" vertex="1" parent="1">
          <mxGeometry x="-5" y="140" width="90" height="30" as="geometry" />
        </mxCell>
        <mxCell id="jlgY_tzZgdFAdNpTK1fE-42" style="edgeStyle=none;shape=connector;rounded=0;orthogonalLoop=1;jettySize=auto;html=1;exitX=0;exitY=0.75;exitDx=0;exitDy=0;entryX=0.917;entryY=0.25;entryDx=0;entryDy=0;entryPerimeter=0;strokeColor=default;align=center;verticalAlign=middle;fontFamily=Helvetica;fontSize=11;fontColor=default;labelBackgroundColor=default;endArrow=none;endFill=0;" edge="1" parent="1" source="jlgY_tzZgdFAdNpTK1fE-6" target="jlgY_tzZgdFAdNpTK1fE-41">
          <mxGeometry relative="1" as="geometry" />
        </mxCell>
        <mxCell id="jlgY_tzZgdFAdNpTK1fE-43" value="quantidade" style="ellipse;whiteSpace=wrap;html=1;align=center;" vertex="1" parent="1">
          <mxGeometry x="40" y="40" width="90" height="30" as="geometry" />
        </mxCell>
        <mxCell id="jlgY_tzZgdFAdNpTK1fE-45" style="edgeStyle=none;shape=connector;rounded=0;orthogonalLoop=1;jettySize=auto;html=1;exitX=0;exitY=0.5;exitDx=0;exitDy=0;entryX=1;entryY=0.5;entryDx=0;entryDy=0;strokeColor=default;align=center;verticalAlign=middle;fontFamily=Helvetica;fontSize=11;fontColor=default;labelBackgroundColor=default;endArrow=none;endFill=0;" edge="1" parent="1" source="jlgY_tzZgdFAdNpTK1fE-44" target="jlgY_tzZgdFAdNpTK1fE-6">
          <mxGeometry relative="1" as="geometry" />
        </mxCell>
        <mxCell id="jlgY_tzZgdFAdNpTK1fE-44" value="preço unitário" style="ellipse;whiteSpace=wrap;html=1;align=center;" vertex="1" parent="1">
          <mxGeometry x="229" y="95" width="90" height="30" as="geometry" />
        </mxCell>
        <mxCell id="jlgY_tzZgdFAdNpTK1fE-47" value="valor total" style="ellipse;whiteSpace=wrap;html=1;align=center;" vertex="1" parent="1">
          <mxGeometry x="-1.5" y="175" width="90" height="30" as="geometry" />
        </mxCell>
        <mxCell id="jlgY_tzZgdFAdNpTK1fE-50" style="edgeStyle=none;shape=connector;rounded=0;orthogonalLoop=1;jettySize=auto;html=1;exitX=1;exitY=0.5;exitDx=0;exitDy=0;entryX=0;entryY=0.5;entryDx=0;entryDy=0;strokeColor=default;align=center;verticalAlign=middle;fontFamily=Helvetica;fontSize=11;fontColor=default;labelBackgroundColor=default;endArrow=none;endFill=0;" edge="1" parent="1" target="jlgY_tzZgdFAdNpTK1fE-47">
          <mxGeometry relative="1" as="geometry">
            <mxPoint x="-11.5" y="190" as="sourcePoint" />
          </mxGeometry>
        </mxCell>
        <mxCell id="jlgY_tzZgdFAdNpTK1fE-52" style="edgeStyle=none;shape=connector;rounded=0;orthogonalLoop=1;jettySize=auto;html=1;exitX=0;exitY=0.5;exitDx=0;exitDy=0;entryX=1;entryY=0.5;entryDx=0;entryDy=0;strokeColor=default;align=center;verticalAlign=middle;fontFamily=Helvetica;fontSize=11;fontColor=default;labelBackgroundColor=default;endArrow=none;endFill=0;" edge="1" parent="1" target="jlgY_tzZgdFAdNpTK1fE-51">
          <mxGeometry relative="1" as="geometry">
            <mxPoint x="-112.5" y="190" as="sourcePoint" />
          </mxGeometry>
        </mxCell>
        <mxCell id="jlgY_tzZgdFAdNpTK1fE-49" value="calculado" style="shape=rhombus;perimeter=rhombusPerimeter;whiteSpace=wrap;html=1;align=center;" vertex="1" parent="1">
          <mxGeometry x="-110" y="165" width="101" height="50" as="geometry" />
        </mxCell>
        <mxCell id="jlgY_tzZgdFAdNpTK1fE-51" value="preço unitário" style="ellipse;whiteSpace=wrap;html=1;align=center;" vertex="1" parent="1">
          <mxGeometry x="-210.5" y="175" width="90" height="30" as="geometry" />
        </mxCell>
        <mxCell id="jlgY_tzZgdFAdNpTK1fE-54" style="edgeStyle=none;shape=connector;rounded=0;orthogonalLoop=1;jettySize=auto;html=1;exitX=1;exitY=0.5;exitDx=0;exitDy=0;entryX=0;entryY=0.5;entryDx=0;entryDy=0;strokeColor=default;align=center;verticalAlign=middle;fontFamily=Helvetica;fontSize=11;fontColor=default;labelBackgroundColor=default;endArrow=none;endFill=0;" edge="1" parent="1" target="jlgY_tzZgdFAdNpTK1fE-51">
          <mxGeometry relative="1" as="geometry">
            <mxPoint x="-219.5" y="190" as="sourcePoint" />
          </mxGeometry>
        </mxCell>
        <mxCell id="jlgY_tzZgdFAdNpTK1fE-57" style="edgeStyle=none;shape=connector;rounded=0;orthogonalLoop=1;jettySize=auto;html=1;exitX=0;exitY=0.5;exitDx=0;exitDy=0;entryX=1;entryY=0.5;entryDx=0;entryDy=0;strokeColor=default;align=center;verticalAlign=middle;fontFamily=Helvetica;fontSize=11;fontColor=default;labelBackgroundColor=default;endArrow=none;endFill=0;" edge="1" parent="1" target="jlgY_tzZgdFAdNpTK1fE-56">
          <mxGeometry relative="1" as="geometry">
            <mxPoint x="-320.5" y="190" as="sourcePoint" />
          </mxGeometry>
        </mxCell>
        <mxCell id="jlgY_tzZgdFAdNpTK1fE-53" value="multiplicado" style="shape=rhombus;perimeter=rhombusPerimeter;whiteSpace=wrap;html=1;align=center;" vertex="1" parent="1">
          <mxGeometry x="-320" y="165" width="101" height="50" as="geometry" />
        </mxCell>
        <mxCell id="jlgY_tzZgdFAdNpTK1fE-56" value="quantidade" style="ellipse;whiteSpace=wrap;html=1;align=center;" vertex="1" parent="1">
          <mxGeometry x="-420.5" y="175" width="90" height="30" as="geometry" />
        </mxCell>
        <mxCell id="jlgY_tzZgdFAdNpTK1fE-59" value="medicamentos" style="whiteSpace=wrap;html=1;align=center;" vertex="1" parent="1">
          <mxGeometry x="-121" y="280" width="100" height="40" as="geometry" />
        </mxCell>
        <mxCell id="jlgY_tzZgdFAdNpTK1fE-62" style="edgeStyle=none;shape=connector;rounded=0;orthogonalLoop=1;jettySize=auto;html=1;exitX=0;exitY=0.5;exitDx=0;exitDy=0;entryX=0.9;entryY=0;entryDx=0;entryDy=0;entryPerimeter=0;strokeColor=default;align=center;verticalAlign=middle;fontFamily=Helvetica;fontSize=11;fontColor=default;labelBackgroundColor=default;endArrow=none;endFill=0;" edge="1" parent="1" source="jlgY_tzZgdFAdNpTK1fE-4" target="jlgY_tzZgdFAdNpTK1fE-59">
          <mxGeometry relative="1" as="geometry">
            <mxPoint x="-17" y="230" as="sourcePoint" />
          </mxGeometry>
        </mxCell>
        <mxCell id="jlgY_tzZgdFAdNpTK1fE-65" style="edgeStyle=none;shape=connector;rounded=0;orthogonalLoop=1;jettySize=auto;html=1;exitX=1;exitY=0.25;exitDx=0;exitDy=0;entryX=0.25;entryY=0;entryDx=0;entryDy=0;strokeColor=default;align=center;verticalAlign=middle;fontFamily=Helvetica;fontSize=11;fontColor=default;labelBackgroundColor=default;endArrow=none;endFill=0;" edge="1" parent="1" target="jlgY_tzZgdFAdNpTK1fE-59">
          <mxGeometry relative="1" as="geometry">
            <mxPoint x="-132" y="260" as="sourcePoint" />
          </mxGeometry>
        </mxCell>
        <mxCell id="jlgY_tzZgdFAdNpTK1fE-63" value="genérico&lt;span style=&quot;color: rgba(0, 0, 0, 0); font-family: monospace; font-size: 0px; text-align: start; text-wrap: nowrap;&quot;&gt;%3CmxGraphModel%3E%3Croot%3E%3CmxCell%20id%3D%220%22%2F%3E%3CmxCell%20id%3D%221%22%20parent%3D%220%22%2F%3E%3CmxCell%20id%3D%222%22%20value%3D%22empresa%22%20style%3D%22whiteSpace%3Dwrap%3Bhtml%3D1%3Balign%3Dcenter%3B%22%20vertex%3D%221%22%20parent%3D%221%22%3E%3CmxGeometry%20x%3D%22119%22%20y%3D%22310%22%20width%3D%22100%22%20height%3D%2240%22%20as%3D%22geometry%22%2F%3E%3C%2FmxCell%3E%3C%2Froot%3E%3C%2FmxGraphModel%3E&lt;/span&gt;" style="whiteSpace=wrap;html=1;align=center;" vertex="1" parent="1">
          <mxGeometry x="-232" y="230" width="100" height="40" as="geometry" />
        </mxCell>
        <mxCell id="jlgY_tzZgdFAdNpTK1fE-66" style="edgeStyle=none;shape=connector;rounded=0;orthogonalLoop=1;jettySize=auto;html=1;exitX=1;exitY=0.75;exitDx=0;exitDy=0;entryX=0.25;entryY=1;entryDx=0;entryDy=0;strokeColor=default;align=center;verticalAlign=middle;fontFamily=Helvetica;fontSize=11;fontColor=default;labelBackgroundColor=default;endArrow=none;endFill=0;" edge="1" parent="1" source="jlgY_tzZgdFAdNpTK1fE-64" target="jlgY_tzZgdFAdNpTK1fE-59">
          <mxGeometry relative="1" as="geometry" />
        </mxCell>
        <mxCell id="jlgY_tzZgdFAdNpTK1fE-64" value="de marca" style="whiteSpace=wrap;html=1;align=center;" vertex="1" parent="1">
          <mxGeometry x="-232" y="300" width="100" height="40" as="geometry" />
        </mxCell>
        <mxCell id="jlgY_tzZgdFAdNpTK1fE-67" value="nome do medicamento" style="ellipse;whiteSpace=wrap;html=1;align=center;" vertex="1" parent="1">
          <mxGeometry x="-211" y="350" width="90" height="30" as="geometry" />
        </mxCell>
        <mxCell id="jlgY_tzZgdFAdNpTK1fE-73" style="edgeStyle=none;shape=connector;rounded=0;orthogonalLoop=1;jettySize=auto;html=1;exitX=0.5;exitY=0;exitDx=0;exitDy=0;entryX=0.5;entryY=1;entryDx=0;entryDy=0;strokeColor=default;align=center;verticalAlign=middle;fontFamily=Helvetica;fontSize=11;fontColor=default;labelBackgroundColor=default;endArrow=none;endFill=0;" edge="1" parent="1" target="jlgY_tzZgdFAdNpTK1fE-59">
          <mxGeometry relative="1" as="geometry">
            <mxPoint x="-87" y="370" as="sourcePoint" />
          </mxGeometry>
        </mxCell>
        <mxCell id="jlgY_tzZgdFAdNpTK1fE-68" value="princípio ativo" style="ellipse;whiteSpace=wrap;html=1;align=center;" vertex="1" parent="1">
          <mxGeometry x="-121" y="350" width="90" height="30" as="geometry" />
        </mxCell>
        <mxCell id="jlgY_tzZgdFAdNpTK1fE-74" style="edgeStyle=none;shape=connector;rounded=0;orthogonalLoop=1;jettySize=auto;html=1;exitX=0;exitY=0;exitDx=0;exitDy=0;entryX=0.75;entryY=1;entryDx=0;entryDy=0;strokeColor=default;align=center;verticalAlign=middle;fontFamily=Helvetica;fontSize=11;fontColor=default;labelBackgroundColor=default;endArrow=none;endFill=0;" edge="1" parent="1" source="jlgY_tzZgdFAdNpTK1fE-69" target="jlgY_tzZgdFAdNpTK1fE-59">
          <mxGeometry relative="1" as="geometry" />
        </mxCell>
        <mxCell id="jlgY_tzZgdFAdNpTK1fE-69" value="nome do laboratório" style="ellipse;whiteSpace=wrap;html=1;align=center;" vertex="1" parent="1">
          <mxGeometry x="-37" y="360" width="90" height="30" as="geometry" />
        </mxCell>
        <mxCell id="jlgY_tzZgdFAdNpTK1fE-75" style="edgeStyle=none;shape=connector;rounded=0;orthogonalLoop=1;jettySize=auto;html=1;exitX=0;exitY=0;exitDx=0;exitDy=0;entryX=1;entryY=0.75;entryDx=0;entryDy=0;strokeColor=default;align=center;verticalAlign=middle;fontFamily=Helvetica;fontSize=11;fontColor=default;labelBackgroundColor=default;endArrow=none;endFill=0;" edge="1" parent="1" source="jlgY_tzZgdFAdNpTK1fE-70" target="jlgY_tzZgdFAdNpTK1fE-59">
          <mxGeometry relative="1" as="geometry" />
        </mxCell>
        <mxCell id="jlgY_tzZgdFAdNpTK1fE-70" value="data de validade" style="ellipse;whiteSpace=wrap;html=1;align=center;" vertex="1" parent="1">
          <mxGeometry x="9" y="330" width="90" height="30" as="geometry" />
        </mxCell>
        <mxCell id="jlgY_tzZgdFAdNpTK1fE-76" style="edgeStyle=none;shape=connector;rounded=0;orthogonalLoop=1;jettySize=auto;html=1;exitX=0;exitY=0.5;exitDx=0;exitDy=0;entryX=1;entryY=0.25;entryDx=0;entryDy=0;strokeColor=default;align=center;verticalAlign=middle;fontFamily=Helvetica;fontSize=11;fontColor=default;labelBackgroundColor=default;endArrow=none;endFill=0;" edge="1" parent="1" source="jlgY_tzZgdFAdNpTK1fE-71" target="jlgY_tzZgdFAdNpTK1fE-59">
          <mxGeometry relative="1" as="geometry" />
        </mxCell>
        <mxCell id="jlgY_tzZgdFAdNpTK1fE-71" value="cor da tarja" style="ellipse;whiteSpace=wrap;html=1;align=center;" vertex="1" parent="1">
          <mxGeometry x="29" y="290" width="90" height="30" as="geometry" />
        </mxCell>
        <mxCell id="jlgY_tzZgdFAdNpTK1fE-72" style="edgeStyle=none;shape=connector;rounded=0;orthogonalLoop=1;jettySize=auto;html=1;exitX=1;exitY=0;exitDx=0;exitDy=0;strokeColor=default;align=center;verticalAlign=middle;fontFamily=Helvetica;fontSize=11;fontColor=default;labelBackgroundColor=default;endArrow=none;endFill=0;" edge="1" parent="1" source="jlgY_tzZgdFAdNpTK1fE-67">
          <mxGeometry relative="1" as="geometry">
            <mxPoint x="-81" y="320" as="targetPoint" />
          </mxGeometry>
        </mxCell>
        <mxCell id="jlgY_tzZgdFAdNpTK1fE-77" value="quantidade" style="ellipse;whiteSpace=wrap;html=1;align=center;" vertex="1" parent="1">
          <mxGeometry x="519" y="500" width="90" height="30" as="geometry" />
        </mxCell>
        <mxCell id="jlgY_tzZgdFAdNpTK1fE-78" value="cliente" style="whiteSpace=wrap;html=1;align=center;" vertex="1" parent="1">
          <mxGeometry x="619" y="500" width="100" height="40" as="geometry" />
        </mxCell>
        <mxCell id="jlgY_tzZgdFAdNpTK1fE-79" value="possui" style="shape=rhombus;perimeter=rhombusPerimeter;whiteSpace=wrap;html=1;align=center;" vertex="1" parent="1">
          <mxGeometry x="599" y="430" width="120" height="60" as="geometry" />
        </mxCell>
        <mxCell id="jlgY_tzZgdFAdNpTK1fE-80" style="edgeStyle=none;shape=connector;rounded=0;orthogonalLoop=1;jettySize=auto;html=1;exitX=1;exitY=1;exitDx=0;exitDy=0;entryX=0.09;entryY=-0.021;entryDx=0;entryDy=0;entryPerimeter=0;strokeColor=default;align=center;verticalAlign=middle;fontFamily=Helvetica;fontSize=11;fontColor=default;labelBackgroundColor=default;endArrow=none;endFill=0;" edge="1" parent="1" source="jlgY_tzZgdFAdNpTK1fE-43" target="jlgY_tzZgdFAdNpTK1fE-6">
          <mxGeometry relative="1" as="geometry" />
        </mxCell>
        <mxCell id="jlgY_tzZgdFAdNpTK1fE-81" style="edgeStyle=none;shape=connector;rounded=0;orthogonalLoop=1;jettySize=auto;html=1;exitX=1;exitY=0;exitDx=0;exitDy=0;entryX=0.198;entryY=1;entryDx=0;entryDy=0;entryPerimeter=0;strokeColor=default;align=center;verticalAlign=middle;fontFamily=Helvetica;fontSize=11;fontColor=default;labelBackgroundColor=default;endArrow=none;endFill=0;" edge="1" parent="1" source="jlgY_tzZgdFAdNpTK1fE-47" target="jlgY_tzZgdFAdNpTK1fE-6">
          <mxGeometry relative="1" as="geometry" />
        </mxCell>
      </root>
    </mxGraphModel>
  </diagram>
</mxfile>
